HIERARCHY
ROOT hip
{
	OFFSET 0.000000 0.000000 0.000000 
	CHANNELS 6 Xposition Yposition Zposition Xrotation Zrotation Yrotation
	JOINT abdomen
	{
		OFFSET 0.000000 3.402643 0.000000 
		CHANNELS 3 Xrotation Zrotation Yrotation
		JOINT chest
		{
			OFFSET 0.000000 8.438565 -0.680529 
			CHANNELS 3 Xrotation Zrotation Yrotation
			JOINT neck
			{
				OFFSET 0.000000 10.207942 -0.272212 
				CHANNELS 3 Xrotation Zrotation Yrotation
				JOINT head
				{
					OFFSET 0.000000 3.130431 0.000000 
					CHANNELS 3 Xrotation Zrotation Yrotation
					End Site
					{
						OFFSET 0.000000 3.130435 0.000000 
					}
				}
			}
			JOINT lCollar
			{
				OFFSET 3.470700 6.669187 -0.816635 
				CHANNELS 3 Yrotation Zrotation Xrotation
				JOINT lShldr
				{
					OFFSET 3.198488 0.000000 0.000000 
					CHANNELS 3 Zrotation Yrotation Xrotation
					JOINT lForeArm
					{
						OFFSET 10.139888 0.000000 0.000000 
						CHANNELS 3 Yrotation Zrotation Xrotation
						JOINT lHand
						{
							OFFSET 8.370511 0.000000 0.000000 
							CHANNELS 3 Zrotation Yrotation Xrotation
							End Site
							{
								OFFSET 4.083176 0.000000 0.000000 
							}
						}
					}
				}
			}
			JOINT rCollar
			{
				OFFSET -3.470700 6.669187 -0.816635 
				CHANNELS 3 Yrotation Zrotation Xrotation
				JOINT rShldr
				{
					OFFSET -3.198488 0.000000 0.000000 
					CHANNELS 3 Zrotation Yrotation Xrotation
					JOINT rForeArm
					{
						OFFSET -10.139888 0.000000 0.000000 
						CHANNELS 3 Yrotation Zrotation Xrotation
						JOINT rHand
						{
							OFFSET -8.370511 0.000000 0.000000 
							CHANNELS 3 Zrotation Yrotation Xrotation
							End Site
							{
								OFFSET -4.083176 0.000000 0.000000 
							}
						}
					}
				}
			}
		}
	}
	JOINT lThigh
	{
		OFFSET 5.308129 -1.633274 1.361059 
		CHANNELS 3 Xrotation Zrotation Yrotation
		JOINT lShin
		{
			OFFSET -2.041588 -20.007561 0.000000 
			CHANNELS 3 Xrotation Zrotation Yrotation
			JOINT lFoot
			{
				OFFSET 0.000000 -19.190928 -1.224953 
				CHANNELS 3 Xrotation Yrotation Zrotation
				End Site
				{
					OFFSET 0.000000 -2.449906 4.627600 
				}
			}
		}
	}
	JOINT rThigh
	{
		OFFSET -5.308129 -1.633274 1.361059 
		CHANNELS 3 Xrotation Zrotation Yrotation
		JOINT rShin
		{
			OFFSET 2.041588 -20.007561 0.000000 
			CHANNELS 3 Xrotation Zrotation Yrotation
			JOINT rFoot
			{
				OFFSET 0.000000 -19.190928 -1.224953 
				CHANNELS 3 Xrotation Yrotation Zrotation
				End Site
				{
					OFFSET 0.000000 -2.449906 4.627600 
				}
			}
		}
	}
}
MOTION
Frames: 16
Frame Time: 0.016667
-0.116701 44.938896 0.159198 1.142630 0.537003 2.471740 -22.858400 1.855510 -2.221850 14.977100 5.190270 -0.965013 16.356800 2.734530 -8.159540 13.104200 5.680900 -3.954010 2.000000 -2.000000 0.000000 93.652901 175.582001 -6.660180 25.058901 -0.338696 0.057966 0.079721 -0.096272 -169.548996 -2.000000 2.000000 0.000000 80.211502 -5.826350 166.011002 -24.941700 0.338814 0.057655 -0.083075 0.091533 -171.707001 -6.361050 -2.921375 -0.579754 26.728296 2.956380 1.971360 -12.820046 19.631413 4.244533 -9.705198 -0.796630 0.981974 34.860516 -2.871553 -2.469450 -15.585863 -19.931368 -7.054027 
-0.112861 44.936962 0.146947 1.171920 0.497943 2.520040 -22.848301 1.859970 -2.265610 14.986800 5.200080 -0.984604 16.470600 2.762910 -8.222850 13.143700 5.689850 -3.987660 2.000000 -2.000000 0.000000 93.565002 175.582001 -6.689480 25.088200 -0.338666 0.058029 0.079677 -0.096203 -169.518997 -2.000000 2.000000 0.000000 80.143097 -5.758060 166.041000 -24.883101 0.338873 0.057528 -0.083059 0.091511 -171.697006 -6.487014 -2.875716 -0.508639 26.845778 2.959982 1.971082 -12.941001 19.490168 4.228528 -9.674561 -0.784481 0.954430 34.734867 -2.848031 -2.464311 -15.623962 -19.866209 -7.103028 
-0.105049 44.928066 0.131834 1.210970 0.400301 2.606190 -22.848400 1.880120 -2.295270 14.937900 5.180210 -0.996892 16.612900 2.770690 -8.144350 13.202400 5.679150 -3.944340 2.000000 -2.000000 0.000000 93.477097 175.552994 -6.670010 25.136999 -0.338617 0.058135 0.079721 -0.096272 -169.548996 -2.000000 2.000000 0.000000 80.074799 -5.738680 166.108994 -24.922100 0.338834 0.057613 -0.083122 0.091601 -171.735992 -6.603372 -2.751959 -0.457731 26.954369 2.958209 1.979006 -13.086124 19.324619 4.224257 -9.744645 -0.707019 0.899190 34.725674 -2.850647 -2.484687 -15.710919 -19.773172 -7.124822 
-0.097239 44.919044 0.116726 1.250020 0.312426 2.682650 -22.838699 1.894860 -2.311580 14.889000 5.170050 -1.010110 16.755100 2.769060 -8.069100 13.251300 5.668620 -3.911770 2.000000 -2.000000 0.000000 93.399002 175.533005 -6.650530 25.185801 -0.338567 0.058240 0.079765 -0.096341 -169.578003 -2.000000 2.000000 0.000000 80.016197 -5.729080 166.177994 -24.961201 0.338794 0.057698 -0.083184 0.091690 -171.774994 -6.743565 -2.639729 -0.424571 27.083889 2.947506 1.994225 -13.209671 19.170815 4.219115 -9.772745 -0.631270 0.817460 34.703690 -2.867786 -2.460949 -15.810149 -19.693975 -7.155853 
-0.083096 44.906029 0.099647 1.289070 0.185500 2.787410 -22.829500 1.919890 -2.300460 14.821000 5.091700 -0.998728 16.871201 2.774080 -7.898920 13.309800 5.648280 -3.811460 2.000000 -2.000000 0.000000 93.359901 175.561996 -6.523510 25.234699 -0.338518 0.058346 0.079839 -0.096456 -169.626999 -2.000000 2.000000 0.000000 79.987000 -5.699820 166.197006 -25.049101 0.338706 0.057888 -0.083262 0.091803 -171.824005 -6.869423 -2.499939 -0.392760 27.204718 2.921144 1.996251 -13.332413 19.046072 4.243366 -9.758602 -0.564730 0.709523 34.636219 -2.858036 -2.468791 -15.890606 -19.619900 -7.177742 
-0.068955 44.892879 0.082569 1.328130 0.068341 2.892220 -22.810400 1.936090 -2.285130 14.743200 5.023000 -0.989002 16.986700 2.779700 -7.719040 13.358700 5.637760 -3.710580 2.000000 -2.000000 0.000000 93.320801 175.582001 -6.386750 25.273701 -0.338478 0.058430 0.079913 -0.096571 -169.675995 -2.000000 2.000000 0.000000 79.957703 -5.680360 166.227005 -25.127199 0.338627 0.058056 -0.083325 0.091892 -171.863007 -7.083030 -2.363061 -0.362886 27.461388 2.918569 2.021745 -13.501407 18.911076 4.235738 -9.841574 -0.482928 0.584780 34.656296 -2.851231 -2.466433 -15.978941 -19.508207 -7.199486 
-0.048048 44.876122 0.069997 1.347660 -0.029289 2.958290 -22.782101 1.969590 -2.223670 14.655700 4.944500 -0.959401 16.989599 2.746740 -7.498530 13.358300 5.618480 -3.586780 2.000000 -2.000000 0.000000 93.301201 175.630005 -6.240160 25.293200 -0.338458 0.058472 0.079957 -0.096640 -169.705002 -2.000000 2.000000 0.000000 79.928398 -5.670690 166.266006 -25.195601 0.338557 0.058204 179.917007 179.908005 8.097860 -7.240590 -2.287140 -0.328930 27.696960 2.922683 2.029143 -13.673118 18.882338 4.265328 -9.817364 -0.440238 0.497617 34.636902 -2.842999 -2.454572 -16.073290 -19.422485 -7.212785 
-0.027140 44.859238 0.057425 1.357420 -0.117155 3.014780 -22.753901 2.003100 -2.162190 14.568200 4.866010 -0.929561 16.992800 2.723180 -7.274710 13.357900 5.599210 -3.462980 2.000000 -2.000000 0.000000 93.271896 175.669006 -6.093590 25.312799 -0.338438 0.058514 0.079987 -0.096686 -169.723999 -2.000000 2.000000 0.000000 79.899101 -5.661010 166.304993 -25.254200 0.338498 0.058331 179.917007 179.908005 8.049040 -7.369557 -2.197701 -0.297834 27.895803 2.908413 2.052202 -13.824586 18.813028 4.288250 -9.890816 -0.388501 0.403457 34.696732 -2.844396 -2.483337 -16.159330 -19.330370 -7.223577 
0.001561 44.838871 0.054703 1.357430 -0.175732 3.042680 -22.696600 2.030670 -2.033640 14.480900 4.758400 -0.867095 16.965599 2.663980 -7.056450 13.367100 5.560490 -3.331620 2.000000 -2.000000 0.000000 93.271896 175.785995 -5.937080 25.293200 -0.338458 0.058472 0.079987 -0.096686 -169.723999 -2.000000 2.000000 0.000000 79.928398 -5.602330 166.266006 -25.264000 0.338488 0.058352 179.917007 179.908005 8.088100 -7.536735 -2.179721 -0.263206 28.152161 2.903979 2.067035 -13.942921 18.827162 4.339944 -9.865005 -0.402353 0.327522 34.726719 -2.830347 -2.469402 -16.279398 -19.255543 -7.263542 
0.030262 44.818504 0.051985 1.357430 -0.234309 3.080350 -22.629400 2.054970 -1.913530 14.393700 4.650820 -0.804300 16.948200 2.604480 -6.836990 13.376300 5.531410 -3.198690 2.000000 -2.000000 0.000000 93.271797 175.901993 -5.780570 25.264000 -0.338488 0.058409 0.080002 -0.096709 -169.733994 -2.000000 2.000000 0.000000 79.947899 -5.543670 166.237000 -25.273701 0.338478 0.058373 -0.083341 0.091915 -171.873001 -7.657043 -2.149834 -0.252161 28.389500 2.896871 2.091682 -14.085044 18.846733 4.368124 -9.898683 -0.389513 0.246794 34.775356 -2.834996 -2.469571 -16.345087 -19.177685 -7.274894 
0.074456 44.799812 0.070885 1.396500 -0.292882 3.078750 -22.621099 2.105280 -1.807140 14.296300 4.582010 -0.755960 16.865700 2.487150 -6.556430 13.326600 5.493740 -3.053430 2.000000 -2.000000 0.000000 93.213203 175.873001 -5.731810 25.273701 -0.338478 0.058430 0.080017 -0.096732 -169.744003 -2.000000 2.000000 0.000000 79.908897 -5.553750 166.373001 -25.264000 0.338488 0.058352 -0.083293 0.091847 -171.843994 -7.719814 -2.142947 -0.246664 28.518097 2.881296 2.076320 -14.225427 18.913574 4.419076 -9.933365 -0.407109 0.196063 34.826740 -2.817242 -2.493175 -16.419073 -19.064959 -7.282895 
0.118649 44.781116 0.089793 1.435570 -0.341690 3.067550 -22.602900 2.155770 -1.700340 14.208800 4.503580 -0.695776 16.774300 2.369510 -6.286690 13.267200 5.465860 -2.907480 2.000000 -2.000000 0.000000 93.144798 175.843994 -5.673280 25.273701 -0.338478 0.058430 0.080017 -0.096732 -169.744003 -2.000000 2.000000 0.000000 79.879700 -5.573600 166.509995 -25.244400 0.338508 0.058310 -0.083247 0.091780 -171.813995 -7.842813 -2.141539 -0.254888 28.756893 2.866056 2.117904 -14.369765 18.965710 4.464972 -9.985774 -0.431518 0.124740 34.905476 -2.811632 -2.490295 -16.491543 -18.980707 -7.292780 
0.174738 44.762558 0.131222 1.523470 -0.390487 3.075490 -22.564899 2.180820 -1.550300 14.170800 4.367370 -0.614578 16.743401 2.238760 -6.041810 13.266400 5.417670 -2.759040 2.000000 -2.000000 0.000000 93.154602 175.852997 -5.477940 25.293200 -0.338458 0.058472 0.080135 -0.096916 -169.822006 -2.000000 2.000000 0.000000 79.918800 -5.534780 166.617996 -25.205400 0.338547 0.058225 -0.083215 0.091735 -171.794998 -8.012436 -2.152105 -0.249333 28.944525 2.865118 2.144152 -14.493883 18.950932 4.503830 -10.042768 -0.449332 0.111548 34.905865 -2.806116 -2.488501 -16.546619 -18.978041 -7.325702 
0.230828 44.743866 0.172653 1.601610 -0.439281 3.083350 -22.526800 2.214870 -1.404040 14.123000 4.231100 -0.544444 16.712700 2.108060 -5.796800 13.265500 5.369470 -2.620370 2.000000 -2.000000 0.000000 93.154503 175.852005 -5.292400 25.312799 -0.338438 0.058514 0.080254 -0.097099 -169.899994 -2.000000 2.000000 0.000000 79.948097 -5.505710 166.714996 -25.176100 0.338577 0.058162 -0.083200 0.091713 -171.785004 -8.130435 -2.158243 -0.209345 29.151787 2.859466 2.159658 -14.716652 18.929571 4.532637 -10.150261 -0.459847 0.114256 35.004593 -2.811347 -2.517721 -16.613533 -18.946098 -7.365887 
0.298617 44.723747 0.234568 1.699280 -0.488067 3.090910 -22.527800 2.253840 -1.272280 14.016200 4.123470 -0.471820 16.709900 1.949700 -5.537630 13.264500 5.311640 -2.483250 2.000000 -2.000000 0.000000 93.154503 175.744995 -5.126620 25.371401 -0.338378 0.058641 0.080344 -0.097237 -169.959000 -2.000000 2.000000 0.000000 79.958000 -5.545320 166.949997 -25.185801 0.338567 0.058183 -0.083262 0.091803 -171.824005 -8.229371 -2.153617 -0.141945 29.310467 2.843970 2.163262 -14.901892 18.864098 4.565519 -10.188638 -0.473568 0.112014 35.033798 -2.813824 -2.518005 -16.724951 -18.946827 -7.410049 
0.366408 44.703514 0.296484 1.796950 -0.536845 3.108070 -22.538401 2.289220 -1.150070 13.909400 4.015880 -0.408558 16.707199 1.782100 -5.281580 13.253900 5.263620 -2.345480 2.000000 -2.000000 0.000000 93.144699 175.626999 -4.960860 25.430000 -0.338318 0.058767 0.080418 -0.097351 -170.007996 -2.000000 2.000000 0.000000 79.967903 -5.584930 167.184006 -25.195601 0.338557 0.058204 -0.083325 0.091892 -171.863007 -8.294572 -2.159798 -0.067588 29.352407 2.817403 2.165717 -15.023773 18.801735 4.611311 -10.227094 -0.500707 0.119906 35.053581 -2.810928 -2.516884 -16.817804 -18.975195 -7.502076 
